<svg xmlns="http://www.w3.org/2000/svg" viewBox="0 0 64 64" fill="none" width="64" height="64"><defs>
    <linearGradient id="bg" x1="8" y1="6" x2="56" y2="58" gradientUnits="userSpaceOnUse">
      <stop stop-color="#F59E0B"></stop>
      <stop offset="1" stop-color="#FB7185"></stop>
    </linearGradient>
  </defs><rect x="4" y="4" width="56" height="56" rx="18" fill="url(#bg)"></rect><g transform="translate(8 10) scale(2)" stroke="#FFF8EF" stroke-width="1.8" stroke-linecap="round" stroke-linejoin="round">
    <path d="M17 21a1 1 0 0 0 1-1v-5.35c0-.457.316-.844.727-1.041a4 4 0 0 0-2.134-7.589 5 5 0 0 0-9.186 0 4 4 0 0 0-2.134 7.588c.411.198.727.585.727 1.041V20a1 1 0 0 0 1 1Z"></path>
    <path d="M6 17h12"></path>
  </g></svg>